<svg class="icon-tooltip" width="19" height="19" viewBox="0 0 19 19" fill="currentcolor">
  <path d="M9.54688 18.6279C8.32227 18.6279 7.16797 18.3936 6.08398 17.9248C5 17.4561 4.04492 16.8086 3.21875 15.9824C2.39258 15.1562 1.74512 14.2012 1.27637 13.1172C0.807617 12.0332 0.573242 10.8789 0.573242 9.6543C0.573242 8.42969 0.807617 7.27539 1.27637 6.19141C1.74512 5.10742 2.38965 4.15234 3.20996 3.32617C4.03613 2.5 4.99121 1.85254 6.0752 1.38379C7.15918 0.915039 8.31348 0.680664 9.53809 0.680664C10.7627 0.680664 11.917 0.915039 13.001 1.38379C14.0908 1.85254 15.0488 2.5 15.875 3.32617C16.7012 4.15234 17.3486 5.10742 17.8174 6.19141C18.2861 7.27539 18.5205 8.42969 18.5205 9.6543C18.5205 10.8789 18.2861 12.0332 17.8174 13.1172C17.3486 14.2012 16.7012 15.1562 15.875 15.9824C15.0488 16.8086 14.0938 17.4561 13.0098 17.9248C11.9258 18.3936 10.7715 18.6279 9.54688 18.6279ZM9.54688 17.1074C10.584 17.1074 11.5508 16.9141 12.4473 16.5273C13.3496 16.1406 14.1436 15.6074 14.8291 14.9277C15.5146 14.248 16.0479 13.46 16.4287 12.5635C16.8096 11.6611 17 10.6914 17 9.6543C17 8.61719 16.8066 7.65039 16.4199 6.75391C16.0391 5.85156 15.5059 5.06055 14.8203 4.38086C14.1406 3.69531 13.3496 3.16211 12.4473 2.78125C11.5449 2.39453 10.5752 2.20117 9.53809 2.20117C8.50684 2.20117 7.54004 2.39453 6.6377 2.78125C5.73535 3.16211 4.94434 3.69531 4.26465 4.38086C3.59082 5.06055 3.06055 5.85156 2.67383 6.75391C2.29297 7.65039 2.10254 8.61719 2.10254 9.6543C2.10254 10.6914 2.29297 11.6611 2.67383 12.5635C3.06055 13.46 3.59375 14.248 4.27344 14.9277C4.95312 15.6074 5.74414 16.1406 6.64648 16.5273C7.54883 16.9141 8.51562 17.1074 9.54688 17.1074ZM8.01758 14.5586C7.83008 14.5586 7.6748 14.5 7.55176 14.3828C7.42871 14.2656 7.36719 14.1191 7.36719 13.9434C7.36719 13.7617 7.42871 13.6123 7.55176 13.4951C7.6748 13.3779 7.83008 13.3193 8.01758 13.3193H9.09863V9.32031H8.16699C7.97949 9.32031 7.82422 9.26172 7.70117 9.14453C7.57812 9.02148 7.5166 8.87207 7.5166 8.69629C7.5166 8.52051 7.57812 8.37402 7.70117 8.25684C7.82422 8.13965 7.97949 8.08105 8.16699 8.08105H9.81934C10.042 8.08105 10.2119 8.1543 10.3291 8.30078C10.4463 8.44141 10.5049 8.63184 10.5049 8.87207V13.3193H11.5859C11.7676 13.3193 11.9199 13.3779 12.043 13.4951C12.1719 13.6123 12.2363 13.7617 12.2363 13.9434C12.2363 14.1191 12.1719 14.2656 12.043 14.3828C11.9199 14.5 11.7676 14.5586 11.5859 14.5586H8.01758ZM9.47656 6.62207C9.16016 6.62207 8.8877 6.51074 8.65918 6.28809C8.43652 6.05957 8.3252 5.78711 8.3252 5.4707C8.3252 5.14844 8.43652 4.87598 8.65918 4.65332C8.8877 4.43066 9.16016 4.31934 9.47656 4.31934C9.79883 4.31934 10.0684 4.43066 10.2852 4.65332C10.5078 4.87598 10.6191 5.14844 10.6191 5.4707C10.6191 5.78711 10.5078 6.05957 10.2852 6.28809C10.0684 6.51074 9.79883 6.62207 9.47656 6.62207Z" fill="currentcolor"/>
</svg>
