<svg width="103" height="26" viewBox="0 0 103 26" fill="none" xmlns="http://www.w3.org/2000/svg" class="icon-nobull">
    <path
        d="M25.1319 0C23.7838 0 22.4928 0.552242 21.5406 1.52983C20.5885 2.50976 20.0552 3.83514 20.0552 5.21927V20.7173C20.046 21.4082 20.1696 22.092 20.4214 22.7336C20.6732 23.3727 21.044 23.9555 21.5178 24.449C21.9893 24.9402 22.5523 25.3303 23.1726 25.5958C23.7929 25.8614 24.459 26 25.1296 26C25.8003 26 26.4686 25.8637 27.0866 25.5958C27.7069 25.3303 28.27 24.9402 28.7415 24.449C29.213 23.9579 29.5861 23.3751 29.8379 22.7336C30.0896 22.092 30.2133 21.4082 30.2041 20.7173V5.21927C30.2041 3.83514 29.6708 2.50976 28.7186 1.53218C27.771 0.552242 26.4801 0 25.1319 0ZM25.1319 21.8547C24.8389 21.8547 24.5574 21.7348 24.3514 21.5233C24.1454 21.3118 24.0287 21.0228 24.0287 20.722V5.22162C24.0241 5.07122 24.0493 4.91847 24.1042 4.77748C24.1568 4.63648 24.2392 4.50723 24.3422 4.39913C24.4452 4.29103 24.5688 4.20409 24.7039 4.14534C24.8389 4.08659 24.9854 4.05604 25.1342 4.05604C25.283 4.05604 25.4272 4.08659 25.5645 4.14534C25.6996 4.20409 25.8232 4.29103 25.9262 4.39913C26.0292 4.50723 26.1093 4.63648 26.1642 4.77748C26.2168 4.91847 26.2443 5.06887 26.2397 5.22162V20.7196C26.2397 21.0204 26.123 21.3095 25.917 21.521C25.711 21.7325 25.4295 21.8547 25.1365 21.8547H25.1319Z"
        fill="#050505" />
    <path
        d="M49.1356 5.21692C49.1356 3.83514 48.6023 2.50741 47.6501 1.52983C46.6979 0.552242 45.407 0 44.0588 0H39.4055C39.2934 0 39.1858 0.0446493 39.108 0.126898C39.0279 0.209147 38.9844 0.317245 38.9844 0.432393V25.5042C38.9844 25.6193 39.0279 25.7298 39.108 25.812C39.1881 25.8943 39.2934 25.9389 39.4055 25.9389H44.0588C45.4047 25.9389 46.6979 25.3867 47.6501 24.4091C48.6023 23.4291 49.1356 22.1038 49.1356 20.7196V16.1443C49.1356 14.9951 48.7671 13.8789 48.0873 12.9694C48.7694 12.06 49.1379 10.9438 49.1356 9.79465V5.21692ZM45.1621 20.7149C45.1621 21.0157 45.0453 21.3048 44.8393 21.5163C44.6333 21.7278 44.3518 21.85 44.0588 21.85H42.9556V15.0116H44.0588C44.3518 15.0116 44.6311 15.1314 44.8393 15.3453C45.0453 15.5568 45.1621 15.8458 45.1621 16.1466V20.7173V20.7149ZM45.1621 9.7923C45.1621 10.0931 45.0431 10.3798 44.8371 10.5913C44.6311 10.8028 44.3518 10.9226 44.0588 10.9226H42.9556V4.08424H44.0588C44.3518 4.08424 44.6311 4.20408 44.8393 4.41793C45.0453 4.62943 45.1621 4.91847 45.1621 5.21927V9.7923Z"
        fill="#050505" />
    <path
        d="M10.8585 0H7.72958C7.61742 0 7.50985 0.0469993 7.43202 0.126898C7.35191 0.209147 7.30842 0.319595 7.30842 0.432393V11.6088L4.06278 0.312545C4.0376 0.223247 3.98267 0.143348 3.91171 0.0869487C3.83847 0.0305495 3.7492 0 3.65764 0H0.421156C0.366222 0 0.311289 0.0117498 0.260933 0.0328995C0.210578 0.0540492 0.162511 0.0869487 0.1236 0.126898C0.0846889 0.166847 0.0526444 0.216197 0.0320444 0.267896C0.0114444 0.321945 0 0.378344 0 0.434743V25.5042C0 25.5606 0.0114444 25.617 0.0320444 25.671C0.0526444 25.7227 0.0846889 25.7721 0.1236 25.812C0.162511 25.852 0.208289 25.8849 0.260933 25.906C0.311289 25.9272 0.366222 25.9389 0.423444 25.9389H3.54778C3.65993 25.9389 3.76751 25.8919 3.84533 25.812C3.92544 25.7298 3.96893 25.6217 3.96893 25.5065V14.3301L7.21458 25.6264C7.23976 25.718 7.2924 25.7979 7.36564 25.8543C7.43889 25.9107 7.52816 25.9412 7.61971 25.9412H10.8585C10.9134 25.9412 10.9684 25.9295 11.021 25.9083C11.0714 25.8872 11.1194 25.8543 11.1583 25.8144C11.1972 25.7744 11.2293 25.7251 11.2499 25.6734C11.2705 25.6217 11.2819 25.5653 11.2819 25.5065V0.434743C11.2819 0.378344 11.2705 0.321945 11.2499 0.267896C11.2293 0.216197 11.1972 0.166847 11.1583 0.126898C11.1194 0.0869487 11.0714 0.0540492 11.021 0.0328995C10.9706 0.0117498 10.9157 0 10.8585 0Z"
        fill="#050505" />
    <path
        d="M85.4065 21.8547H80.8127V0.434743C80.8127 0.378344 80.8012 0.321945 80.7806 0.267896C80.76 0.216197 80.728 0.166847 80.6891 0.126898C80.6502 0.0869487 80.6021 0.0540492 80.5518 0.0328995C80.5014 0.0117498 80.4465 0 80.3892 0H77.2603C77.1482 0 77.0429 0.0469993 76.9651 0.129248C76.8872 0.211497 76.8438 0.319595 76.8438 0.434743V25.5042C76.8438 25.6193 76.8872 25.7298 76.9674 25.812C77.0452 25.8943 77.1527 25.9389 77.2649 25.9389H85.4088C85.5209 25.9389 85.6285 25.8919 85.7086 25.812C85.7887 25.7321 85.8322 25.6193 85.8322 25.5042V22.2871C85.8322 22.1719 85.7887 22.0615 85.7086 21.9792C85.6285 21.897 85.5209 21.8523 85.4088 21.8523"
        fill="#050505" />
    <path
        d="M102.579 21.8547H97.9852V0.434743C97.9852 0.378344 97.9738 0.321945 97.9532 0.267896C97.9326 0.216197 97.9005 0.166847 97.8616 0.126898C97.8227 0.0869487 97.7747 0.0540492 97.7243 0.0328995C97.6717 0.0117498 97.6167 0 97.5618 0H94.4329C94.3207 0 94.2131 0.0469993 94.1353 0.126898C94.0552 0.209147 94.0117 0.319595 94.0117 0.432393V25.5018C94.0117 25.617 94.0552 25.7274 94.1353 25.8097C94.2131 25.8919 94.3207 25.9366 94.4329 25.9366H102.579C102.691 25.9366 102.799 25.8896 102.877 25.8097C102.957 25.7274 103 25.617 103 25.5018V22.2847C103 22.1696 102.957 22.0591 102.877 21.9792C102.796 21.897 102.689 21.8523 102.579 21.8523V21.8547Z"
        fill="#050505" />
    <path
        d="M61.6564 25.9389C61.7182 25.9389 61.7777 25.9131 61.8212 25.8684C61.8647 25.8238 61.8899 25.7627 61.8899 25.6992V0.434743C61.8899 0.378344 61.8784 0.321945 61.8578 0.267896C61.8372 0.216197 61.8052 0.166847 61.7663 0.126898C61.7274 0.0869487 61.6793 0.0540492 61.6289 0.0328995C61.5786 0.0117498 61.5214 0 61.4664 0H58.3375C58.2826 0 58.2276 0.0117498 58.175 0.0328995C58.1246 0.0540492 58.0766 0.0869487 58.0377 0.126898C57.9987 0.166847 57.9667 0.216197 57.9461 0.267896C57.9255 0.319595 57.9141 0.375994 57.9141 0.434743V20.9147C57.9141 22.0497 58.2734 23.1518 58.9395 24.0589C59.6055 24.9637 60.5394 25.6217 61.6015 25.9342C61.6198 25.9389 61.6358 25.9412 61.6541 25.9412"
        fill="#050505" />
    <path
        d="M64.3233 25.9387C64.2615 25.9387 64.202 25.9129 64.1585 25.8682C64.115 25.8236 64.0898 25.7625 64.0898 25.6991V0.434591C64.0898 0.319442 64.1333 0.208994 64.2134 0.129095C64.2936 0.0468466 64.3988 0.00219727 64.511 0.00219727H67.6399C67.6948 0.00219727 67.7498 0.0139471 67.8001 0.0350968C67.8505 0.0562464 67.8986 0.0891459 67.9375 0.129095C67.9764 0.169045 68.0084 0.218394 68.029 0.270093C68.0496 0.321792 68.0611 0.378191 68.0611 0.436941V20.9169C68.0611 22.0519 67.7017 23.154 67.0356 24.0611C66.3696 24.9659 65.4357 25.6239 64.3737 25.9364C64.3576 25.9411 64.3393 25.9434 64.321 25.9434L64.3233 25.9387Z"
        fill="#050505" />
</svg>
